<?xml version="1.0" encoding="UTF-8" standalone="no"?>
<!-- Uploaded to: SVG Repo, www.svgrepo.com, Generator: SVG Repo Mixer Tools -->

<svg
   width="709.78992"
   height="709.76147"
   viewBox="0 0 21.293698 21.292844"
   fill="none"
   version="1.1"
   id="svg3"
   xmlns="http://www.w3.org/2000/svg"
   xmlns:svg="http://www.w3.org/2000/svg">
  <defs
     id="defs3" />
  <g
     id="g3"
     transform="matrix(1.0646423,0,0,1.0646423,-2.1292846,-2.1292845)">
    <path
       d="M 10.51,11.22 8.31,2.39 C 8.26,2.16 8.05,2 7.81,2 4.6,2 2,4.6 2,7.81 v 5.7 C 2,13.85 2.33,14.1 2.66,14 l 7.5,-2.17 c 0.26,-0.07 0.42,-0.34 0.35,-0.61 z"
       fill="#292D32"
       id="path1"
       style="fill:#4d96ff;fill-opacity:1" />
    <path
       d="m 11.12,13.6789 c -0.07,-0.28 -0.36,-0.45 -0.64,-0.37 l -8.11,2.36 c -0.22,0.07 -0.37,0.27 -0.37,0.5 v 0.02 c 0,3.21 2.6,5.81 5.81,5.81 h 4.72 c 0.33,0 0.58,-0.31 0.5,-0.64 z"
       fill="#292D32"
       id="path2"
       style="fill:#ffd93d;fill-opacity:1" />
    <path
       d="m 16.1908,2 h -5.75 c -0.33,0 -0.57999,0.31 -0.49999,0.64 l 4.73999,18.97 c 0.06,0.23 0.26,0.39 0.5,0.39 h 1 c 3.22,0 5.82,-2.6 5.82,-5.81 V 7.81 c 0,-3.21 -2.6,-5.81 -5.81,-5.81 z"
       fill="#292D32"
       id="path3"
       style="fill:#ff6b9d;fill-opacity:1" />
  </g>
</svg>
